<svg xmlns="http://www.w3.org/2000/svg" width="167" height="44.995" viewBox="0 0 167 44.995">
  <defs>
    <style>
      .cls-1 {
        fill: #6c1fe5;
      }

      .cls-2 {
        fill: #fff;
      }
    </style>
  </defs>
  <title>nftoyer-logo</title>
  <g id="Layer_2" data-name="Layer 2">
    <g id="Layer_1-2" data-name="Layer 1">
      <g>
        <polygon class="cls-1" points="160.65 44.995 0 44.995 6.35 0 167 0 160.65 44.995"/>
        <g>
          <g>
            <path class="cls-2" d="M28.28524,24.99185v7.20988H21.83435V12.68041h6.28222l5.04575,7.1395v-7.1395h6.43693V32.20173H33.56972l-.19657.11286Z"/>
            <path class="cls-2" d="M55.466,18.47089H47.60937v1.58838h5.28479v5.29781H47.60937v6.84465H41.1867V12.68041H55.466Z"/>
            <path class="cls-2" d="M68.4236,18.47089V32.20173h-6.423V18.47089H57.05348V12.68041H75.12513l-3.21334,5.79048Z"/>
            <path class="cls-2" d="M89.62725,29.40257a9.78324,9.78324,0,0,1-16.696-6.91235,9.42236,9.42236,0,0,1,2.87044-6.91294,9.69642,9.69642,0,0,1,13.82558,0,9.30417,9.30417,0,0,1,2.90994,6.91294A9.38791,9.38791,0,0,1,89.62725,29.40257Zm-4.27952-9.55913a3.751,3.751,0,0,0-5.293,0,3.62612,3.62612,0,0,0-1.07968,2.64678,3.688,3.688,0,0,0,3.73924,3.73924,3.61148,3.61148,0,0,0,2.63342-1.08,3.55667,3.55667,0,0,0,1.13255-2.65927A3.463,3.463,0,0,0,85.34773,19.84344Z"/>
            <path class="cls-2" d="M96.651,23.97984l-6.24-11.29943h6.81674l2.78238,5.05969,2.79727-5.05969h6.80248l-6.24067,11.29943v8.22189H96.651Z"/>
            <path class="cls-2" d="M125.44837,18.47089h-7.80022v1.58838h5.21441V24.816h-5.21441v1.5953h7.82812v5.79048h-14.279V12.68041h14.25111Z"/>
            <path class="cls-2" d="M141.2305,26.94578l3.93515,5.25595h-8.06749L134.428,28.64609h-.91279v3.55564h-6.4515V12.68041h9.07948a7.92223,7.92223,0,0,1,5.87481,2.37528,7.35232,7.35232,0,0,1,2.44567,5.31239,7.98215,7.98215,0,0,1-2.44567,5.8745A9.2644,9.2644,0,0,1,141.2305,26.94578ZM133.51523,22.322h2.628a1.99408,1.99408,0,0,0,1.93967-1.95393,1.8208,1.8208,0,0,0-.57669-1.37724,1.85174,1.85174,0,0,0-1.363-.54817h-2.628Z"/>
          </g>
          <path class="cls-2" d="M143.75994,12.8438v-.01147a2.038,2.038,0,1,1,4.07591-.01116v.01116a2.038,2.038,0,1,1-4.07591.01147Zm3.839-.01147v-.01116a1.80147,1.80147,0,1,0-3.60277.01116v.01147a1.80147,1.80147,0,1,0,3.60277-.01147Zm-2.69618-1.14253h1.00766a.99164.99164,0,0,1,.73171.24184.66641.66641,0,0,1,.186.49546v.01116a.67946.67946,0,0,1-.44461.66443l.51778.75435h-.69265l-.439-.65885h-.26478V13.857h-.60211Zm.99649,1.04115c.20836,0,.32618-.0955.32618-.25332v-.01116c0-.17455-.129-.25889-.33176-.25889h-.3888V12.731Z"/>
        </g>
      </g>
    </g>
  </g>
</svg>
