<svg xmlns="http://www.w3.org/2000/svg" width="16" height="16" viewBox="0 0 16 16">
  <defs>
    <style>
      .cls-1 {
        fill: #989ba6;
      }
    </style>
  </defs>
  <title>opensea</title>
  <g id="Layer_2" data-name="Layer 2">
    <g id="Layer_1-2" data-name="Layer 1">
      <path class="cls-1" d="M8,0a8,8,0,1,0,8,8A8.00087,8.00087,0,0,0,8,0ZM3.9472,8.2688l.0336-.0544,2.0816-3.256a.07169.07169,0,0,1,.1248.0096A4.43786,4.43786,0,0,1,6.6944,7.32a3.61856,3.61856,0,0,1-.4096.8944c-.024.0448-.0496.0896-.0784.1328a.07066.07066,0,0,1-.0592.0304H4.008A.07071.07071,0,0,1,3.9472,8.2688Zm9.2752,1.12a.07261.07261,0,0,1-.0432.0672,2.56108,2.56108,0,0,0-.9424.6416c-.5856.8144-1.032,1.9792-2.032,1.9792H6.0352A2.67915,2.67915,0,0,1,3.36,9.392V9.344a.07137.07137,0,0,1,.072-.0704H5.7552a.07971.07971,0,0,1,.0768.088.78178.78178,0,0,0,.0832.4464.81667.81667,0,0,0,.7328.4544H7.7984V9.3648H6.6608a.07358.07358,0,0,1-.0592-.1152c.0128-.0192.0256-.0384.0416-.0608.1072-.1536.2608-.3904.4144-.6608a5.31192,5.31192,0,0,0,.2864-.5728c.016-.0352.0288-.072.0432-.1072.0224-.0624.0448-.1216.0608-.1792.016-.0496.0304-.1008.0432-.1488a2.33561,2.33561,0,0,0,.0544-.5248c0-.072-.0032-.1472-.0096-.2176-.0032-.0784-.0128-.1568-.0224-.2352-.0064-.0688-.0192-.1376-.032-.208-.0176-.104-.04-.208-.0656-.312l-.0096-.04c-.0192-.072-.0368-.1392-.0592-.2112-.0656-.224-.1392-.4432-.2192-.648-.0288-.0816-.0608-.16-.0944-.2368-.048-.1184-.0976-.2256-.1424-.3264-.024-.0464-.0432-.088-.0624-.1312-.0224-.048-.0448-.096-.0688-.1424-.016-.0352-.0352-.0688-.048-.1008l-.1408-.2592a.046.046,0,0,1,.0512-.0672l.88.2384h.0064l.1152.0336.128.0352.0464.0128V3.6576A.45445.45445,0,0,1,8.2512,3.2a.44072.44072,0,0,1,.3184.1344.46.46,0,0,1,.1328.3232v.776l.0944.0256a.13224.13224,0,0,1,.0208.0112c.0224.016.056.0416.0976.0736.0336.0256.0688.0576.1104.0912.0848.0688.1872.1568.2976.2576.0288.0256.0576.0512.0848.0784.1424.1328.3024.288.456.4608.0432.0496.0848.0976.128.1504.0416.0528.088.104.1264.1552.0528.0688.1072.1408.1568.216.0224.0352.0496.072.0704.1072a3.3495,3.3495,0,0,1,.1712.2896c.0224.0448.0448.0944.064.1424a1.98093,1.98093,0,0,1,.1344.3984.43359.43359,0,0,1,.0192.088v.0064a.73956.73956,0,0,1,.016.1232,1.37145,1.37145,0,0,1-.0224.4112c-.0128.0576-.0288.112-.048.1712-.0208.056-.04.1136-.0656.1696a2.30154,2.30154,0,0,1-.176.3344c-.0224.04-.0496.0816-.0752.1216-.0288.0416-.0592.0816-.0848.12-.0368.0496-.0752.1008-.1152.1472a1.56151,1.56151,0,0,1-.1104.1392c-.0544.0656-.1072.1264-.1632.1856a1.38794,1.38794,0,0,1-.104.1136c-.0352.04-.072.0752-.104.1072-.056.056-.1008.0976-.1392.1344l-.0912.0816a.06775.06775,0,0,1-.048.0192H8.7024v.8976H9.584a.82.82,0,0,0,.536-.1984,6.50874,6.50874,0,0,0,.544-.5344.06288.06288,0,0,1,.0336-.0208l2.4336-.704a.07122.07122,0,0,1,.0912.0688v.5152Z"/>
    </g>
  </g>
</svg>
