{
    "asset" : {
        "generator" : "Khronos glTF Blender I/O v1.6.16",
        "version" : "2.0"
    },
    "scene" : 0,
    "scenes" : [
        {
            "name" : "Scene",
            "nodes" : [
                0
            ]
        }
    ],
    "nodes" : [
        {
            "mesh" : 0,
            "name" : "chorao_lowpoly",
            "rotation" : [
                0.7071068286895752,
                0,
                0,
                0.7071067094802856
            ]
        }
    ],
    "meshes" : [
        {
            "name" : "Mesh",
            "primitives" : [
                {
                    "attributes" : {
                        "POSITION" : 0,
                        "NORMAL" : 1
                    },
                    "indices" : 2
                }
            ]
        }
    ],
    "accessors" : [
        {
            "bufferView" : 0,
            "componentType" : 5126,
            "count" : 26387,
            "max" : [
                4.513009548187256,
                2.328397274017334,
                8.576024055480957
            ],
            "min" : [
                -4.513009548187256,
                -1.5650441646575928,
                -6.864622116088867
            ],
            "type" : "VEC3"
        },
        {
            "bufferView" : 1,
            "componentType" : 5126,
            "count" : 26387,
            "type" : "VEC3"
        },
        {
            "bufferView" : 2,
            "componentType" : 5123,
            "count" : 126060,
            "type" : "SCALAR"
        }
    ],
    "bufferViews" : [
        {
            "buffer" : 0,
            "byteLength" : 316644,
            "byteOffset" : 0
        },
        {
            "buffer" : 0,
            "byteLength" : 316644,
            "byteOffset" : 316644
        },
        {
            "buffer" : 0,
            "byteLength" : 252120,
            "byteOffset" : 633288
        }
    ],
    "buffers" : [
        {
            "byteLength" : 885408,
            "uri" : "data:application/octet-stream;base64,"
        }
    ]
}
